<svg id="visual" viewBox="0 0 900 300" width="900" height="300" xmlns="http://www.w3.org/2000/svg" xmlns:xlink="http://www.w3.org/1999/xlink" version="1.1"><rect x="0" y="0" width="900" height="300" fill="#202731"></rect><path d="M0 109L21.5 106.7C43 104.3 86 99.7 128.8 99.3C171.7 99 214.3 103 257.2 106C300 109 343 111 385.8 106.3C428.7 101.7 471.3 90.3 514.2 85.8C557 81.3 600 83.7 642.8 84.7C685.7 85.7 728.3 85.3 771.2 89.8C814 94.3 857 103.7 878.5 108.3L900 113L900 0L878.5 0C857 0 814 0 771.2 0C728.3 0 685.7 0 642.8 0C600 0 557 0 514.2 0C471.3 0 428.7 0 385.8 0C343 0 300 0 257.2 0C214.3 0 171.7 0 128.8 0C86 0 43 0 21.5 0L0 0Z" fill="#c62368"></path><path d="M0 74L21.5 71.2C43 68.3 86 62.7 128.8 63.7C171.7 64.7 214.3 72.3 257.2 76.2C300 80 343 80 385.8 79C428.7 78 471.3 76 514.2 70.8C557 65.7 600 57.3 642.8 57.2C685.7 57 728.3 65 771.2 65C814 65 857 57 878.5 53L900 49L900 0L878.5 0C857 0 814 0 771.2 0C728.3 0 685.7 0 642.8 0C600 0 557 0 514.2 0C471.3 0 428.7 0 385.8 0C343 0 300 0 257.2 0C214.3 0 171.7 0 128.8 0C86 0 43 0 21.5 0L0 0Z" fill="#e34c67"></path><path d="M0 35L21.5 36.5C43 38 86 41 128.8 39C171.7 37 214.3 30 257.2 29.8C300 29.7 343 36.3 385.8 40C428.7 43.7 471.3 44.3 514.2 42.2C557 40 600 35 642.8 31.3C685.7 27.7 728.3 25.3 771.2 27.7C814 30 857 37 878.5 40.5L900 44L900 0L878.5 0C857 0 814 0 771.2 0C728.3 0 685.7 0 642.8 0C600 0 557 0 514.2 0C471.3 0 428.7 0 385.8 0C343 0 300 0 257.2 0C214.3 0 171.7 0 128.8 0C86 0 43 0 21.5 0L0 0Z" fill="#fa7268"></path></svg>